<svg width="16" height="16" viewBox="0 0 16 16" fill="none" xmlns="http://www.w3.org/2000/svg">
<path d="M8.0013 15.1662C5.33464 15.1662 3.16797 13.2529 3.16797 10.8995V8.43286C3.16797 8.15953 3.39464 7.93286 3.66797 7.93286C3.9413 7.93286 4.16797 8.15953 4.16797 8.43286C4.16797 10.1795 5.81464 11.4995 8.0013 11.4995C10.188 11.4995 11.8346 10.1795 11.8346 8.43286C11.8346 8.15953 12.0613 7.93286 12.3346 7.93286C12.608 7.93286 12.8346 8.15953 12.8346 8.43286V10.8995C12.8346 13.2529 10.668 15.1662 8.0013 15.1662ZM4.16797 10.9729C4.21464 12.7395 5.91464 14.1662 8.0013 14.1662C10.088 14.1662 11.788 12.7395 11.8346 10.9729C10.968 11.9129 9.59464 12.4995 8.0013 12.4995C6.40797 12.4995 5.0413 11.9129 4.16797 10.9729Z" fill="#7C3FF9"/>
<path d="M8.0013 9.16658C6.1613 9.16658 4.50796 8.33992 3.70129 7.00658C3.35463 6.43992 3.16797 5.77992 3.16797 5.09992C3.16797 3.95325 3.6813 2.87325 4.60797 2.05992C5.51464 1.26659 6.7213 0.833252 8.0013 0.833252C9.2813 0.833252 10.4813 1.26659 11.3946 2.05325C12.3213 2.87325 12.8346 3.95325 12.8346 5.09992C12.8346 5.77992 12.648 6.43325 12.3013 7.00658C11.4946 8.33992 9.8413 9.16658 8.0013 9.16658ZM8.0013 1.83325C6.9613 1.83325 5.98798 2.17992 5.26131 2.81992C4.55465 3.43325 4.16797 4.24659 4.16797 5.09992C4.16797 5.59992 4.30129 6.06658 4.55463 6.48658C5.18796 7.52658 6.50797 8.16658 8.0013 8.16658C9.49464 8.16658 10.8146 7.51992 11.448 6.48658C11.708 6.06658 11.8346 5.59992 11.8346 5.09992C11.8346 4.24659 11.448 3.43325 10.7346 2.80658C10.008 2.17992 9.0413 1.83325 8.0013 1.83325Z" fill="#7C3FF9"/>
<path d="M8.0013 12.4999C5.24797 12.4999 3.16797 10.7533 3.16797 8.43325V5.09992C3.16797 2.74659 5.33464 0.833252 8.0013 0.833252C9.2813 0.833252 10.4813 1.26659 11.3946 2.05325C12.3213 2.87325 12.8346 3.95325 12.8346 5.09992V8.43325C12.8346 10.7533 10.7546 12.4999 8.0013 12.4999ZM8.0013 1.83325C5.88797 1.83325 4.16797 3.29992 4.16797 5.09992V8.43325C4.16797 10.1799 5.81464 11.4999 8.0013 11.4999C10.188 11.4999 11.8346 10.1799 11.8346 8.43325V5.09992C11.8346 4.24659 11.448 3.43325 10.7346 2.80658C10.008 2.17992 9.0413 1.83325 8.0013 1.83325Z" fill="#7C3FF9"/>
</svg>
