<svg width="16" height="16" viewBox="0 0 16 16" fill="none" xmlns="http://www.w3.org/2000/svg">
<path fill-rule="evenodd" clip-rule="evenodd" d="M0.5 6.5C0.5 3.67157 0.5 2.25736 1.37868 1.37868C2.25736 0.5 3.67157 0.5 6.5 0.5H10.5098C11.3273 0.5 11.7361 0.5 12.1036 0.652241C12.4711 0.804482 12.7602 1.09351 13.3382 1.67157L14.3284 2.66176C14.9065 3.23982 15.1955 3.52885 15.3478 3.89639C15.5 4.26394 15.5 4.67269 15.5 5.49019V9.5C15.5 12.3284 15.5 13.7426 14.6213 14.6213C14.104 15.1386 13.4011 15.3514 12.3333 15.4389V13.5L12.3333 13.4384C12.3334 12.7843 12.3335 12.1965 12.2695 11.7208C12.1997 11.2015 12.0375 10.6687 11.6011 10.2322C11.1647 9.79579 10.6318 9.63366 10.1125 9.56384C9.63678 9.49988 9.04906 9.49993 8.39494 9.5L8.33333 9.5H6.83333L6.77173 9.5C6.1176 9.49993 5.52988 9.49988 5.05418 9.56384C4.53482 9.63366 4.00201 9.79579 3.56557 10.2322C3.12913 10.6687 2.96699 11.2015 2.89717 11.7208C2.83321 12.1965 2.83327 12.7843 2.83333 13.4384L2.83333 13.5V15.3284C2.21075 15.2042 1.74753 14.9902 1.37868 14.6213C0.5 13.7426 0.5 12.3284 0.5 9.5V6.5ZM10.3333 13.5V15.499C10.07 15.5 9.79259 15.5 9.5 15.5H6.5C5.87947 15.5 5.327 15.5 4.83333 15.4907V13.5C4.83333 12.7646 4.83546 12.3137 4.87933 11.9873C4.9179 11.7005 4.97275 11.6526 4.97926 11.6469L4.97978 11.6464L4.98025 11.6459C4.98593 11.6394 5.03383 11.5846 5.32067 11.546C5.64702 11.5021 6.09796 11.5 6.83333 11.5H8.33333C9.06871 11.5 9.51964 11.5021 9.84599 11.546C10.1328 11.5846 10.1807 11.6394 10.1864 11.6459L10.1869 11.6464L10.1874 11.6469C10.1939 11.6526 10.2488 11.7005 10.2873 11.9873C10.3312 12.3137 10.3333 12.7646 10.3333 13.5ZM3.83333 3.66667C3.28105 3.66667 2.83333 4.11438 2.83333 4.66667C2.83333 5.21895 3.28105 5.66667 3.83333 5.66667H8C8.55228 5.66667 9 5.21895 9 4.66667C9 4.11438 8.55228 3.66667 8 3.66667H3.83333Z" fill="white"/>
</svg>
