<svg width="10" height="10" viewBox="0 0 10 10" fill="none" xmlns="http://www.w3.org/2000/svg">
<path d="M10 5.425C10 5.53546 9.91046 5.625 9.8 5.625H2.39167L5.74191 8.97525C5.82002 9.05335 5.82002 9.17998 5.74191 9.25809L5.14142 9.85858C5.06332 9.93668 4.93668 9.93668 4.85858 9.85858L0.141421 5.14142C0.0633164 5.06332 0.0633165 4.93668 0.141421 4.85858L4.85858 0.141421C4.93668 0.0633163 5.06332 0.0633163 5.14142 0.141421L5.74191 0.741913C5.82002 0.820017 5.82002 0.946651 5.74191 1.02476L2.39167 4.375H9.8C9.91046 4.375 10 4.46454 10 4.575V5.425Z" fill="#212134"/>
</svg>
