<svg width="30" height="30" viewBox="0 0 30 30" fill="none" xmlns="http://www.w3.org/2000/svg">
<g clip-path="url(#clip0_437_2739)">
<mask id="mask0_437_2739" style="mask-type:luminance" maskUnits="userSpaceOnUse" x="0" y="0" width="31" height="30">
<path d="M15.0011 30C6.71629 30 0 23.2837 0 15.0011C0 6.71629 6.71629 0 15.0011 0C23.2858 0 30.0021 6.71629 30.0021 15.0011C30 23.2837 23.2837 30 15.0011 30Z" fill="white"/>
</mask>
<g mask="url(#mask0_437_2739)">
<path d="M30 0H0V30H30V0Z" fill="#005BFF"/>
</g>
<mask id="mask1_437_2739" style="mask-type:luminance" maskUnits="userSpaceOnUse" x="0" y="0" width="31" height="30">
<path d="M15.0011 30C6.71629 30 0 23.2837 0 15.0011C0 6.71629 6.71629 0 15.0011 0C23.2858 0 30.0021 6.71629 30.0021 15.0011C30 23.2837 23.2837 30 15.0011 30Z" fill="white"/>
</mask>
<g mask="url(#mask1_437_2739)">
<path d="M26.8249 -5.32568C25.1464 -2.2353 24.0245 -0.632958 20.7691 3.01835C20.2716 3.72745 19.6747 4.318 19.0355 4.87681C16.0594 7.47824 13.0897 10.1029 10.1051 12.6917C9.22245 13.4579 8.29534 14.1564 7.38092 14.8825C6.83693 15.3143 6.18499 15.5513 5.54786 15.7694C3.42058 16.4954 1.30599 17.1812 -0.814943 17.9242C-1.76746 18.2586 -2.70516 18.6692 -3.64074 19.0566C-4.2948 19.3275 -4.80281 19.8271 -5.29388 20.3372C-6.47712 21.5712 -7.11424 22.7164 -8.13661 24.687C-8.13873 24.6193 -8.41602 18.5401 -8.41602 18.5401C-7.13329 16.8912 -5.58175 15.5789 -4.04291 14.3681C-3.36557 13.8347 -2.6353 13.4071 -1.90928 12.9499C-0.626556 12.1434 0.529161 11.1295 1.6235 10.0606C2.6628 9.04883 3.51371 7.86348 4.34769 6.66331C5.66851 4.7604 7.0105 2.86806 8.43716 1.04982C9.1526 0.137521 9.9887 -0.654125 10.8206 -1.44154C11.8874 -2.4512 14.1459 -4.75206 14.1459 -4.75206C14.1544 -4.75206 18.0745 -4.92986 18.0745 -4.92986C17.9581 -4.79439 17.8395 -4.58907 17.7951 -4.51499C17.321 -3.70641 16.8235 -2.92111 16.3833 -2.0956C16.1038 -1.57066 15.9218 -0.969514 15.672 -0.425522C15.1725 0.653996 14.5714 1.65096 13.6845 2.42144C13.3924 2.67544 13.0494 2.89982 12.7087 3.06915C11.9996 3.42052 11.3773 3.88832 10.7888 4.41961C9.89768 5.22395 9.09757 6.12355 8.30169 7.03162C7.0486 8.45827 5.86325 9.93784 4.7287 11.4703C4.61863 11.6185 4.49374 11.7582 4.39637 11.917C4.34981 11.9932 4.33287 12.0926 4.29901 12.1794L4.32864 12.2345C4.44294 12.1942 4.57418 12.1667 4.67578 12.1032C5.05678 11.8704 5.45472 11.6608 5.81033 11.392C7.15655 10.3739 8.50912 9.34305 9.8236 8.28047C10.5009 7.73224 11.0957 7.07818 11.7519 6.49821C12.1562 6.1426 12.6155 5.85473 13.0367 5.52029C13.7289 4.97207 14.4147 4.43442 15.0794 3.8481C16.0911 2.95908 17.1008 2.04043 18.0766 1.10062C20.1086 -0.863678 19.7086 -3.0333 21.6602 -5.09285L26.8249 -5.32568Z" fill="#E84646"/>
<path d="M33.3188 25.703C33.0056 26.0248 32.8468 26.2767 32.5145 26.5772C32.2457 26.8206 31.9155 27.0112 31.6297 27.2376C30.5777 28.0716 29.604 29.1046 28.4377 29.7544C27.5572 30.2455 26.6406 30.5905 25.6521 30.7048C25.4765 30.726 25.2838 30.7027 25.1103 30.6603C24.8838 30.6053 24.797 30.4 24.8224 30.1587C24.8626 29.7861 25.051 29.5046 25.2775 29.2358C25.5251 28.9416 25.7749 28.6093 26.0776 28.3891C26.7825 27.8811 27.3328 27.2398 27.8133 26.5137C28.1583 25.9909 28.4716 25.4617 28.823 24.9431C29.2463 24.3145 29.8009 23.8149 30.3343 23.2963C31.6022 22.0687 32.8108 20.7436 34.1507 19.6069C34.1486 19.6408 33.3485 25.4808 33.3188 25.703Z" fill="#E84646"/>
<path d="M27.4682 -5.36585C27.4682 -5.36585 27.3582 -5.08645 27.2587 -4.88959C26.2025 -2.52736 25.2626 -0.338687 23.9143 1.85422C22.7544 3.7402 21.5563 5.58596 20.1762 7.3026C19.6936 7.90375 19.2046 8.51971 18.5845 8.97056C17.6129 9.67754 16.6434 10.3591 15.6634 11.0513C14.2749 12.0313 12.8736 13.0029 11.5909 14.1374C11.085 14.5841 10.6024 15.0582 10.2023 15.6191C9.8954 16.0488 9.59059 16.487 9.23287 16.868C7.7787 18.4259 6.16577 19.7996 4.54014 21.1501C2.86372 22.5407 1.17459 23.9145 -0.516653 25.284C-1.56865 26.137 -2.64182 26.9562 -3.79754 27.6504C-4.02826 27.788 -4.2865 27.8918 -4.53415 27.9912C-4.57225 28.0061 -6.95142 28.9543 -7.14404 29.13C-7.12923 29.329 -6.92391 32.2098 -6.91756 32.2479C-6.88369 32.2289 -6.20423 31.6828 -6.06876 31.5833C-5.09508 30.8467 -4.58495 30.3006 -3.50967 29.7587C-2.28833 29.1427 -1.06276 28.5733 0.13529 27.9129C2.87853 26.391 5.59426 24.7675 8.24014 23.0678C9.46571 22.2804 10.6786 21.4908 11.8703 20.6463C13.2991 19.6387 14.5416 18.4153 15.7544 17.1431C17.2382 15.5853 18.6945 13.9956 20.1402 12.3954C21.1266 11.3032 22.0897 10.1686 23.0507 9.04888C23.6942 8.29957 24.3376 7.55661 24.9536 6.78189C25.9844 5.48012 26.8544 4.0704 27.754 2.66703C28.3086 1.8013 28.8759 0.93345 29.5003 0.12487C31.0942 -1.94103 32.5356 -3.93496 34.502 -5.87598L27.4682 -5.36585Z" fill="#E84646"/>
<path d="M5.4885 1.58744C4.14863 3.00562 2.84051 4.42593 1.53027 5.87375C0.81694 6.6654 0.173464 7.51843 -0.531398 8.32278C-1.79083 9.76002 -3.09472 11.1803 -4.58276 12.3551C-6.09197 13.5447 -7.71548 14.747 -9.25432 15.8984C-9.25855 15.8117 -9.44059 11.7772 -9.44482 11.6862C-8.79288 10.5813 -8.1367 9.33033 -7.65198 8.13016C-7.36622 7.42106 -7.11434 6.67598 -6.82647 5.96689C-6.27612 4.60162 -5.55433 3.35276 -4.49174 2.35791C-3.89907 1.80122 -3.21749 1.40752 -2.51686 1.03286C-0.414979 -0.0932245 1.68479 -1.23836 3.79091 -2.35386C5.04611 -3.02062 5.99651 -4.18269 7.11624 -5.06112L11.5592 -5.26221C9.54198 -2.96559 7.59038 -0.637217 5.4885 1.58744Z" fill="#E84646"/>
<path d="M14.8231 34.3942C15.1681 34.0576 15.4919 33.7528 15.8094 33.429C17.2933 31.9134 18.9739 30.6688 20.6271 29.3797C20.9827 29.1024 21.3319 28.8061 21.6685 28.5013C21.787 28.3891 21.8759 28.2536 21.9436 28.1033C21.9881 28.0081 22.0241 27.8536 21.9733 27.788C21.9077 27.7033 21.7489 27.6186 21.6494 27.6419C21.4081 27.6927 21.1499 27.7583 20.9424 27.8917C19.7486 28.66 18.5717 29.4475 17.3906 30.2327C16.9884 30.5016 16.5884 30.8106 16.1883 31.0794C15.456 31.5663 14.8125 32.1822 14.2706 32.8934C13.9256 33.3485 13.5975 33.683 13.2271 34.1148C13.1826 34.1677 13.062 34.2841 12.9794 34.3709C12.7042 34.3688 8.59996 34.3222 8.53223 34.3222C9.0106 34.0111 9.55248 33.6216 9.74933 33.4755C11.8893 31.8732 13.6229 30.8995 15.9089 29.5575C17.9367 28.3658 19.937 27.1233 21.9436 25.8956C22.6422 25.4681 23.3555 25.0384 23.8868 24.3674C24.2339 23.9292 24.5959 23.508 24.9324 23.0592C26.0183 21.6114 27.0915 20.1234 28.1816 18.6777C28.8758 17.7569 29.5701 16.8467 30.4083 16.0636C31.0137 15.4963 31.6614 14.9819 32.271 14.421C33.4775 13.3118 33.1622 11.8429 35.391 8.42438C36.6314 6.52147 37.4527 5.88857 38.1237 5.16254C38.5534 4.69687 39.8065 3.98566 40.3103 3.60889C40.306 3.91581 40.2954 4.96993 40.2933 5.18583C39.3726 5.97536 37.8803 8.16826 37.7109 9.40018C37.1035 13.7966 33.0965 16.4551 31.0539 19.0841C30.0972 20.3202 29.0071 21.3934 27.8429 22.4052C27.0788 23.0698 26.34 23.7599 25.7304 24.5896C25.4849 24.9241 25.3198 25.3199 25.0954 25.6734C24.3588 26.8249 23.6095 27.9763 22.8602 29.1194C22.3014 29.966 21.7447 30.8297 21.1245 31.6255C20.3858 32.5738 19.8206 33.2194 19.0353 34.1275C18.9972 34.1719 18.8617 34.3391 18.7601 34.4407L14.8231 34.3942Z" fill="#E84646"/>
<path d="M-8.21509 36.0495C-5.94598 34.4429 -3.33821 33.0967 -0.948454 31.6658C0.150113 31.0075 1.27831 30.3957 2.40652 29.7946C3.6469 29.1342 4.88941 28.4526 6.16789 27.8875C8.25073 26.9667 10.1282 25.7369 11.8766 24.2488C12.4566 23.7557 12.9752 23.1736 13.5001 22.6105C14.6029 21.4273 15.7184 20.2271 16.7958 19.0185C17.8584 17.8268 18.8787 16.6054 19.9286 15.401C20.4726 14.7766 21.0652 14.1945 21.7405 13.731C21.8886 13.6336 22.0601 13.5786 22.2252 13.5214C22.3966 13.46 22.5131 13.5341 22.4728 13.7183C22.4051 14.0294 22.312 14.3681 22.1659 14.6433C21.6685 15.5619 21.1605 16.4509 20.6165 17.3421C19.9391 18.4533 19.1793 19.5307 18.3432 20.5129C17.5896 21.3998 16.7683 22.1787 15.8391 22.8561C15.2041 23.3133 14.5924 23.8361 14.023 24.3822C13.134 25.2458 12.1137 25.9126 11.1083 26.6174C8.97252 28.1161 6.74999 29.494 4.54438 30.8741C2.24353 32.3135 0.450685 33.8206 -1.86922 35.9309L-8.21509 36.0495Z" fill="#E84646"/>
<path d="M34.5022 3.85664C36.0516 3.14966 38.5578 1.00756 39.6521 -0.0825391L39.2161 -6.58081C38.7398 -6.18922 37.9842 -5.64946 37.5502 -5.27692C37.093 -4.88957 36.5109 -4.35827 36.0918 -3.92858C34.3752 -2.16537 33.846 -1.32504 32.2479 0.554588C30.7895 2.26912 29.2231 4.02386 28.2156 6.08553C27.8748 6.78616 27.5848 7.49313 27.2419 8.19164C26.3232 10.0734 25.2712 11.8959 24.2425 13.712C23.4826 15.0519 22.6783 16.3388 21.7258 17.5326C20.8876 18.5825 20.0515 19.6345 19.19 20.6632C18.61 21.3575 18.0279 22.0433 17.395 22.6805C16.4996 23.5843 15.4709 24.3103 14.4253 25.0067C13.3415 25.7327 12.2472 26.4334 11.1423 27.1234C9.80028 27.9616 8.66361 29.0856 7.54387 30.2117C7.07608 30.6837 6.61464 31.1706 6.1151 31.6002C4.87471 32.6671 3.75286 33.319 2.64371 34.5361C2.54211 34.6462 2.29022 34.9086 2.2373 34.9658L7.59467 34.606C7.8127 34.4578 8.15983 34.0154 8.32917 33.8101C8.76733 33.1454 9.05096 32.8491 9.44044 32.1548C9.87224 31.3843 10.4565 30.7684 11.1952 30.3408C11.7773 30.0042 12.3382 29.6656 12.9224 29.3333C13.7225 28.8782 14.5734 28.4845 15.3312 27.9637C16.8679 26.9075 18.3814 25.8005 19.8673 24.6702C21.2601 23.6076 22.6042 22.4794 23.9674 21.3766C24.45 20.9871 24.8606 20.5574 25.1802 20.0007C25.9444 18.6672 26.5455 17.2405 27.0726 15.7906C27.4938 14.6328 27.8706 13.4538 28.2791 12.2875C29.0326 10.139 30.0677 8.13661 31.2425 6.22311C32.1569 4.74354 32.9549 4.56362 34.5022 3.85664Z" fill="#E84646"/>
</g>
<mask id="mask2_437_2739" style="mask-type:luminance" maskUnits="userSpaceOnUse" x="0" y="0" width="31" height="30">
<path d="M15.0011 30C6.71629 30 0 23.2837 0 15.0011C0 6.71629 6.71629 0 15.0011 0C23.2858 0 30.0021 6.71629 30.0021 15.0011C30 23.2837 23.2837 30 15.0011 30Z" fill="white"/>
</mask>
<g mask="url(#mask2_437_2739)">
<mask id="mask3_437_2739" style="mask-type:luminance" maskUnits="userSpaceOnUse" x="0" y="0" width="30" height="30">
<path d="M30 0H0V30H30V0Z" fill="white"/>
</mask>
<g mask="url(#mask3_437_2739)">
<path d="M3.18988 20.0557C2.06167 20.5214 0.802238 19.7699 0.626551 18.5253C0.508016 17.6786 0.97369 16.8425 1.74417 16.525C2.87237 16.0594 4.13181 16.8108 4.30749 18.0554C4.42391 18.9021 3.95824 19.7382 3.18988 20.0557ZM1.8881 14.7597C-0.292097 15.1132 -1.5727 17.4077 -0.776821 19.5371C-0.188379 21.1119 1.43301 22.0814 3.04594 21.8189C5.22614 21.4675 6.50675 19.1709 5.71087 17.0415C5.12242 15.4667 3.50103 14.4994 1.8881 14.7597Z" fill="white"/>
<path d="M6.76067 13.5193C6.26959 13.6505 6.00501 14.2072 6.24631 14.6962C6.422 15.0539 6.8411 15.219 7.22211 15.1174L9.42983 14.5268L7.22846 20.0493C7.15649 20.2313 7.31948 20.4197 7.50786 20.3689L12.8949 18.9253C13.2759 18.8237 13.5553 18.4702 13.5278 18.0723C13.4918 17.5283 12.9838 17.179 12.4948 17.3103L9.8066 18.03L12.0059 12.5117C12.0778 12.3297 11.9127 12.1392 11.7243 12.19L6.76067 13.5193Z" fill="white"/>
<path d="M28.275 7.72173C27.9279 7.89954 27.767 8.31441 27.8686 8.69541L28.5862 11.3688L23.3558 9.0743C23.1738 8.99387 22.9811 9.16109 23.0341 9.35583L24.5136 14.8762C24.6152 15.2572 24.9624 15.5366 25.3518 15.5154C25.8958 15.4858 26.2451 14.9714 26.1096 14.4719L25.3878 11.7752L30.6182 14.0697C30.8002 14.1502 30.9928 13.9829 30.9399 13.7882L29.4561 8.24667C29.3207 7.74502 28.7618 7.47408 28.275 7.72173Z" fill="white"/>
<path d="M17.0458 10.5857C14.4254 11.2863 12.7172 13.403 13.2294 15.3123C13.7417 17.2215 16.2796 18.1994 18.8979 17.4967C21.5163 16.794 23.2266 14.6794 22.7144 12.7701C22.2021 10.8608 19.6642 9.88292 17.0458 10.5857ZM17.4776 12.1986C19.2874 11.7139 20.9003 12.3235 21.1332 13.1934C21.366 14.0634 20.2759 15.399 18.4661 15.8838C16.6564 16.3685 15.0434 15.7589 14.8106 14.8889C14.5756 14.0168 15.6679 12.6833 17.4776 12.1986Z" fill="white"/>
</g>
</g>
</g>
<defs>
<clipPath id="clip0_437_2739">
<rect width="30" height="30" fill="white"/>
</clipPath>
</defs>
</svg>
