<svg width="15" height="15" viewBox="0 0 15 15" fill="none" xmlns="http://www.w3.org/2000/svg">
<path d="M5 8.125L7.64229 10.2388C7.90974 10.4528 8.29957 10.4116 8.51645 10.1466L13.75 3.75" stroke="#7C3FF9" stroke-width="1.25" stroke-linecap="round"/>
<path fill-rule="evenodd" clip-rule="evenodd" d="M6.99332 7.648L9.85876 4.14579C10.0773 3.87864 10.038 3.48488 9.77081 3.2663C9.50366 3.04772 9.10989 3.08709 8.89131 3.35425L6.033 6.84774L6.99332 7.648ZM5.01437 10.0667L4.05405 9.26645L3.64572 9.76553L1.62504 8.25002C1.34889 8.04291 0.957143 8.09888 0.750037 8.37502C0.54293 8.65116 0.598894 9.04291 0.875037 9.25002L2.89572 10.7655C3.43158 11.1674 4.189 11.0755 4.61316 10.5571L5.01437 10.0667Z" fill="#7C3FF9"/>
</svg>
