<svg width="16" height="8" viewBox="0 0 16 8" fill="none" xmlns="http://www.w3.org/2000/svg">
<path fill-rule="evenodd" clip-rule="evenodd" d="M10.3435 0.211098L4.01416 6.41991L1.2346 3.93965L1.15348 3.87717C0.87036 3.68971 0.468579 3.71054 0.211824 3.93965C-0.0706078 4.19167 -0.0706078 4.60027 0.211824 4.85229L3.52754 7.81098L3.61145 7.87532C3.90448 8.06747 4.32137 8.03664 4.57392 7.7889L11.4134 1.07958L11.4795 1.00433C11.676 0.743116 11.6337 0.385984 11.3651 0.16796C11.0696 -0.0718654 10.6122 -0.052552 10.3435 0.211098ZM14.7417 0.211098L7.90224 6.92042L7.83613 6.99567C7.63967 7.25688 7.68198 7.61402 7.95058 7.83204C8.24605 8.07187 8.70345 8.05255 8.97221 7.7889L15.8117 1.07958L15.8778 1.00433C16.0743 0.743116 16.032 0.385984 15.7634 0.16796C15.4679 -0.0718654 15.0105 -0.052552 14.7417 0.211098Z" fill="#7C3FF9"/>
</svg>
