<svg width="48" height="48" viewBox="0 0 48 48" fill="none" xmlns="http://www.w3.org/2000/svg">
<rect width="48" height="48" rx="24" fill="#915DFA"/>
<path d="M19.3003 29H18.0403V20.11H14.9183V19.004H22.4083V20.11H19.3003V29ZM32.3642 23.988C32.3642 24.7627 32.2662 25.4673 32.0702 26.102C31.8742 26.7273 31.5802 27.2687 31.1882 27.726C30.8055 28.1833 30.3248 28.5333 29.7462 28.776C29.1768 29.0187 28.5142 29.14 27.7582 29.14C26.9742 29.14 26.2928 29.0187 25.7142 28.776C25.1355 28.524 24.6548 28.174 24.2722 27.726C23.8895 27.2687 23.6048 26.7227 23.4182 26.088C23.2315 25.4533 23.1382 24.7487 23.1382 23.974C23.1382 22.9473 23.3062 22.0513 23.6422 21.286C23.9782 20.5207 24.4868 19.9233 25.1682 19.494C25.8588 19.0647 26.7268 18.85 27.7722 18.85C28.7708 18.85 29.6108 19.0647 30.2922 19.494C30.9735 19.914 31.4868 20.5113 31.8322 21.286C32.1868 22.0513 32.3642 22.952 32.3642 23.988ZM24.4682 23.988C24.4682 24.828 24.5848 25.5513 24.8182 26.158C25.0515 26.7647 25.4108 27.2313 25.8962 27.558C26.3908 27.8847 27.0115 28.048 27.7582 28.048C28.5142 28.048 29.1302 27.8847 29.6062 27.558C30.0915 27.2313 30.4508 26.7647 30.6842 26.158C30.9175 25.5513 31.0342 24.828 31.0342 23.988C31.0342 22.728 30.7728 21.7433 30.2502 21.034C29.7275 20.3153 28.9015 19.956 27.7722 19.956C27.0162 19.956 26.3908 20.1193 25.8962 20.446C25.4108 20.7633 25.0515 21.2253 24.8182 21.832C24.5848 22.4293 24.4682 23.148 24.4682 23.988Z" fill="white"/>
</svg>
