<svg width="33" height="34" viewBox="0 0 33 34" fill="none" xmlns="http://www.w3.org/2000/svg">
<rect y="33.5" width="33" height="33" rx="16.5" transform="rotate(-90 0 33.5)" fill="white"/>
<path d="M12.5 17C12.5 17.6904 11.9404 18.25 11.25 18.25C10.5596 18.25 10 17.6904 10 17C10 16.3096 10.5596 15.75 11.25 15.75C11.9404 15.75 12.5 16.3096 12.5 17ZM17.75 17C17.75 17.6904 17.1904 18.25 16.5 18.25C15.8096 18.25 15.25 17.6904 15.25 17C15.25 16.3096 15.8096 15.75 16.5 15.75C17.1904 15.75 17.75 16.3096 17.75 17ZM21.75 18.25C22.4404 18.25 23 17.6904 23 17C23 16.3096 22.4404 15.75 21.75 15.75C21.0596 15.75 20.5 16.3096 20.5 17C20.5 17.6904 21.0596 18.25 21.75 18.25Z" fill="#666687"/>
</svg>
