<!-- icon666.com - MILLIONS OF FREE VECTOR ICONS --><svg xmlns="http://www.w3.org/2000/svg" viewBox="0 0 64 64"><g id="Graduation_Hat_Mortaboard" data-name="Graduation Hat / Mortaboard"><path d="M30,40a3.0859,3.0859,0,0,1-1.23-.26L10,31.33V42.49a.9979.9979,0,0,0,.59.91l19,8.51a.9789.9789,0,0,0,.82,0l19-8.51a.9979.9979,0,0,0,.59-.91V31.33L31.23,39.74A3.0859,3.0859,0,0,1,30,40Z" fill="#000000" style="fill: rgba(142, 142, 169, 1);"></path><path d="M63.5547,45.168,61,43.4648V25a2.0149,2.0149,0,0,0-2-2H31a1,1,0,0,1,0-2H54.75L30.41,10.09a.9789.9789,0,0,0-.82,0l-29,13a.9968.9968,0,0,0,0,1.82l29,13a.9789.9789,0,0,0,.82,0L59,25.0938v18.371L56.4453,45.168A1,1,0,0,0,56,46v7a1,1,0,0,0,1,1h6a1,1,0,0,0,1-1V46A1,1,0,0,0,63.5547,45.168Z" fill="#000000" style="fill: rgba(142, 142, 169, 1);"></path></g></svg>