<svg width="29" height="27" viewBox="0 0 29 27" fill="none" xmlns="http://www.w3.org/2000/svg">
<path fill-rule="evenodd" clip-rule="evenodd" d="M26.6216 11.9446C26.6216 17.1824 21.5175 21.9832 14.4883 21.9832C12.7847 21.9832 11.1941 21.7012 9.76193 21.1993L9.25572 22.0614L8.72152 22.8642L8.67927 22.8447C8.19701 23.5067 7.36772 24.0239 6.63664 24.3139C6.28407 24.4538 5.91514 24.5521 5.55376 24.6177C6.09353 23.8212 6.52665 22.9488 6.80549 21.9316C6.8191 21.9393 6.83273 21.9469 6.84638 21.9545L7.30819 20.0374C4.24477 18.157 2.35495 15.1317 2.35495 11.9446C2.35495 6.70685 7.45911 1.90606 14.4883 1.90606C21.5175 1.90606 26.6216 6.70685 26.6216 11.9446ZM7.77035 22.4268C7.82717 22.4534 7.88422 22.4796 7.94151 22.5055L7.77035 22.4268ZM28.4883 11.9446C28.4883 18.5415 22.2203 23.8893 14.4883 23.8893C13.0821 23.8893 11.7244 23.7124 10.444 23.3833C9.85241 24.9294 8.39112 25.7194 7.23394 26.1784C5.95873 26.6842 4.57987 26.7553 3.68367 26.6702C3.32237 26.6359 3.02708 26.3542 2.91824 25.9837C2.72226 25.5972 2.77327 25.097 3.06638 24.779C4.18821 23.5617 4.93381 22.4219 5.25078 20.9203C2.33105 18.7312 0.488281 15.5215 0.488281 11.9446C0.488281 5.34779 6.75629 0 14.4883 0C22.2203 0 28.4883 5.34779 28.4883 11.9446ZM20.9623 7.50947C21.4155 7.91839 21.4514 8.61729 21.0425 9.0705C19.6149 10.6527 17.8387 12.6994 16.4158 14.355C15.7052 15.1818 15.0841 15.9094 14.6407 16.4302C14.4191 16.6905 14.2419 16.8992 14.1201 17.0426L13.9806 17.2073L13.9446 17.2498L13.9355 17.2605L13.9332 17.2632L13.9327 17.2638L13.9326 17.264L13.0887 16.5502L12.4266 17.4352L12.4265 17.4351L12.4262 17.4349L12.4249 17.4339L12.4197 17.43L12.3989 17.4145L12.318 17.3541C12.2475 17.3015 12.1449 17.2249 12.0165 17.1294C11.7597 16.9382 11.4002 16.6712 10.9896 16.368C10.1669 15.7603 9.14465 15.0113 8.33245 14.4348C7.83466 14.0815 7.71754 13.3916 8.07085 12.8938C8.42415 12.396 9.1141 12.2789 9.61189 12.6322C10.4419 13.2213 11.4779 13.9805 12.3029 14.5898C12.5253 14.7541 12.7327 14.9077 12.9172 15.0446L12.9575 14.9972C13.4026 14.4744 14.026 13.7441 14.7394 12.9141C16.1646 11.2559 17.955 9.19252 19.4013 7.58966C19.8102 7.13645 20.5091 7.10055 20.9623 7.50947ZM13.0887 16.5502L13.9325 17.264C13.5549 17.7105 12.8948 17.7855 12.4266 17.4352L13.0887 16.5502Z" fill="#7C3FF9"/>
</svg>
