<svg width="68" height="46" viewBox="0 0 68 46" fill="none" xmlns="http://www.w3.org/2000/svg">
<path d="M5.75 40.3815C5.75 40.7015 5.65333 40.9449 5.46 41.1115C5.26667 41.2715 5.03667 41.3515 4.77 41.3515C4.51 41.3515 4.28333 41.2715 4.09 41.1115C3.90333 40.9449 3.81 40.7015 3.81 40.3815V36.2315H3.13C2.82333 36.2315 2.58333 36.1349 2.41 35.9415C2.24333 35.7482 2.16 35.5182 2.16 35.2515C2.16 34.9849 2.24333 34.7549 2.41 34.5615C2.58333 34.3682 2.82333 34.2715 3.13 34.2715H6.41C6.71667 34.2715 6.95667 34.3682 7.13 34.5615C7.30333 34.7549 7.39 34.9849 7.39 35.2515C7.39 35.5182 7.30333 35.7482 7.13 35.9415C6.95667 36.1349 6.71667 36.2315 6.41 36.2315H5.75V40.3815ZM10.3462 36.2315V37.1415H11.7962C11.9295 37.1415 12.0295 37.0915 12.0962 36.9915C12.1628 36.8915 12.1962 36.7782 12.1962 36.6515C12.1962 36.5449 12.1628 36.4482 12.0962 36.3615C12.0362 36.2749 11.9362 36.2315 11.7962 36.2315H10.3462ZM10.3462 38.5615V39.3615H11.7962C11.9362 39.3615 12.0362 39.3182 12.0962 39.2315C12.1628 39.1449 12.1962 39.0549 12.1962 38.9615C12.1962 38.8615 12.1628 38.7715 12.0962 38.6915C12.0362 38.6049 11.9362 38.5615 11.7962 38.5615H10.3462ZM8.48617 35.2515C8.48617 34.5982 8.77951 34.2715 9.36617 34.2715H12.4362C12.6828 34.2715 12.8995 34.3249 13.0862 34.4315C13.2728 34.5315 13.4295 34.6682 13.5562 34.8415C13.6828 35.0082 13.7762 35.2015 13.8362 35.4215C13.9028 35.6415 13.9362 35.8649 13.9362 36.0915C13.9362 36.4915 13.8495 36.8449 13.6762 37.1515C13.5095 37.4515 13.2462 37.6415 12.8862 37.7215C13.0662 37.7415 13.2262 37.8015 13.3662 37.9015C13.5128 38.0015 13.6362 38.1315 13.7362 38.2915C13.8362 38.4515 13.9128 38.6349 13.9662 38.8415C14.0262 39.0482 14.0562 39.2649 14.0562 39.4915C14.0562 39.7382 14.0228 39.9715 13.9562 40.1915C13.8895 40.4115 13.7862 40.6049 13.6462 40.7715C13.5062 40.9382 13.3228 41.0715 13.0962 41.1715C12.8762 41.2649 12.6128 41.3115 12.3062 41.3115H9.41617C8.79617 41.3115 8.48617 40.9815 8.48617 40.3215V35.2515ZM15.2136 37.7915C15.2136 37.2915 15.3069 36.8249 15.4936 36.3915C15.6803 35.9582 15.9369 35.5782 16.2636 35.2515C16.5903 34.9249 16.9703 34.6682 17.4036 34.4815C17.8369 34.2949 18.3036 34.2015 18.8036 34.2015C19.3036 34.2015 19.7703 34.2949 20.2036 34.4815C20.6436 34.6682 21.0236 34.9249 21.3436 35.2515C21.6703 35.5782 21.9269 35.9582 22.1136 36.3915C22.3069 36.8249 22.4036 37.2915 22.4036 37.7915C22.4036 38.2915 22.3069 38.7582 22.1136 39.1915C21.9269 39.6249 21.6703 40.0049 21.3436 40.3315C21.0236 40.6582 20.6436 40.9149 20.2036 41.1015C19.7703 41.2882 19.3036 41.3815 18.8036 41.3815C18.3036 41.3815 17.8369 41.2882 17.4036 41.1015C16.9703 40.9149 16.5903 40.6582 16.2636 40.3315C15.9369 40.0049 15.6803 39.6249 15.4936 39.1915C15.3069 38.7582 15.2136 38.2915 15.2136 37.7915ZM17.1836 37.8215C17.1836 38.0482 17.2269 38.2615 17.3136 38.4615C17.4003 38.6549 17.5169 38.8249 17.6636 38.9715C17.8103 39.1182 17.9803 39.2349 18.1736 39.3215C18.3736 39.4015 18.5869 39.4415 18.8136 39.4415C19.0403 39.4415 19.2503 39.4015 19.4436 39.3215C19.6436 39.2349 19.8169 39.1182 19.9636 38.9715C20.1169 38.8249 20.2369 38.6549 20.3236 38.4615C20.4103 38.2615 20.4536 38.0482 20.4536 37.8215C20.4536 37.5949 20.4103 37.3815 20.3236 37.1815C20.2369 36.9815 20.1169 36.8082 19.9636 36.6615C19.8169 36.5149 19.6436 36.3982 19.4436 36.3115C19.2503 36.2249 19.0403 36.1815 18.8136 36.1815C18.5869 36.1815 18.3736 36.2249 18.1736 36.3115C17.9803 36.3982 17.8103 36.5149 17.6636 36.6615C17.5169 36.8082 17.4003 36.9815 17.3136 37.1815C17.2269 37.3815 17.1836 37.5949 17.1836 37.8215ZM25.4475 37.4415L27.2675 34.7315C27.3808 34.5649 27.5108 34.4415 27.6575 34.3615C27.8108 34.2815 27.9708 34.2415 28.1375 34.2415C28.2575 34.2415 28.3708 34.2649 28.4775 34.3115C28.5842 34.3515 28.6808 34.4149 28.7675 34.5015C28.8542 34.5815 28.9208 34.6815 28.9675 34.8015C29.0208 34.9215 29.0475 35.0549 29.0475 35.2015V40.4315C29.0475 40.7315 28.9575 40.9615 28.7775 41.1215C28.5975 41.2749 28.3842 41.3515 28.1375 41.3515C27.8775 41.3515 27.6542 41.2749 27.4675 41.1215C27.2875 40.9615 27.1975 40.7315 27.1975 40.4315V38.1415L25.3875 40.8515C25.2742 41.0249 25.1375 41.1515 24.9775 41.2315C24.8242 41.3115 24.6675 41.3515 24.5075 41.3515C24.3875 41.3515 24.2708 41.3315 24.1575 41.2915C24.0508 41.2449 23.9542 41.1815 23.8675 41.1015C23.7875 41.0149 23.7208 40.9115 23.6675 40.7915C23.6142 40.6715 23.5875 40.5349 23.5875 40.3815V35.1615C23.5875 34.8615 23.6775 34.6349 23.8575 34.4815C24.0442 34.3215 24.2608 34.2415 24.5075 34.2415C24.7675 34.2415 24.9875 34.3215 25.1675 34.4815C25.3542 34.6349 25.4475 34.8615 25.4475 35.1615V37.4415ZM27.5175 32.2415C27.6508 32.2415 27.7675 32.2949 27.8675 32.4015C27.9675 32.5015 28.0175 32.6215 28.0175 32.7615C28.0175 32.9415 27.9608 33.1015 27.8475 33.2415C27.7342 33.3749 27.5908 33.4915 27.4175 33.5915C27.2508 33.6849 27.0675 33.7582 26.8675 33.8115C26.6742 33.8582 26.4942 33.8815 26.3275 33.8815C26.1542 33.8815 25.9675 33.8582 25.7675 33.8115C25.5742 33.7582 25.3908 33.6849 25.2175 33.5915C25.0508 33.4915 24.9108 33.3749 24.7975 33.2415C24.6842 33.1015 24.6275 32.9415 24.6275 32.7615C24.6275 32.6215 24.6775 32.5015 24.7775 32.4015C24.8775 32.2949 24.9942 32.2415 25.1275 32.2415C25.2808 32.2415 25.3942 32.2749 25.4675 32.3415C25.5408 32.4082 25.6075 32.4849 25.6675 32.5715C25.7342 32.6515 25.8108 32.7249 25.8975 32.7915C25.9908 32.8582 26.1342 32.8915 26.3275 32.8915C26.5142 32.8915 26.6508 32.8582 26.7375 32.7915C26.8308 32.7249 26.9075 32.6515 26.9675 32.5715C27.0342 32.4849 27.1042 32.4082 27.1775 32.3415C27.2508 32.2749 27.3642 32.2415 27.5175 32.2415ZM33.0808 37.7915C33.0808 37.2915 33.1741 36.8249 33.3608 36.3915C33.5474 35.9582 33.8041 35.5782 34.1308 35.2515C34.4574 34.9249 34.8374 34.6682 35.2708 34.4815C35.7041 34.2949 36.1708 34.2015 36.6708 34.2015C37.1708 34.2015 37.6374 34.2949 38.0708 34.4815C38.5108 34.6682 38.8908 34.9249 39.2108 35.2515C39.5374 35.5782 39.7941 35.9582 39.9808 36.3915C40.1741 36.8249 40.2708 37.2915 40.2708 37.7915C40.2708 38.2915 40.1741 38.7582 39.9808 39.1915C39.7941 39.6249 39.5374 40.0049 39.2108 40.3315C38.8908 40.6582 38.5108 40.9149 38.0708 41.1015C37.6374 41.2882 37.1708 41.3815 36.6708 41.3815C36.1708 41.3815 35.7041 41.2882 35.2708 41.1015C34.8374 40.9149 34.4574 40.6582 34.1308 40.3315C33.8041 40.0049 33.5474 39.6249 33.3608 39.1915C33.1741 38.7582 33.0808 38.2915 33.0808 37.7915ZM35.0508 37.8215C35.0508 38.0482 35.0941 38.2615 35.1808 38.4615C35.2674 38.6549 35.3841 38.8249 35.5308 38.9715C35.6774 39.1182 35.8474 39.2349 36.0408 39.3215C36.2408 39.4015 36.4541 39.4415 36.6808 39.4415C36.9074 39.4415 37.1174 39.4015 37.3108 39.3215C37.5108 39.2349 37.6841 39.1182 37.8308 38.9715C37.9841 38.8249 38.1041 38.6549 38.1908 38.4615C38.2774 38.2615 38.3208 38.0482 38.3208 37.8215C38.3208 37.5949 38.2774 37.3815 38.1908 37.1815C38.1041 36.9815 37.9841 36.8082 37.8308 36.6615C37.6841 36.5149 37.5108 36.3982 37.3108 36.3115C37.1174 36.2249 36.9074 36.1815 36.6808 36.1815C36.4541 36.1815 36.2408 36.2249 36.0408 36.3115C35.8474 36.3982 35.6774 36.5149 35.5308 36.6615C35.3841 36.8082 35.2674 36.9815 35.1808 37.1815C35.0941 37.3815 35.0508 37.5949 35.0508 37.8215ZM44.3848 40.3815C44.3848 40.7015 44.2881 40.9449 44.0948 41.1115C43.9014 41.2715 43.6714 41.3515 43.4048 41.3515C43.1448 41.3515 42.9181 41.2715 42.7248 41.1115C42.5381 40.9449 42.4448 40.7015 42.4448 40.3815V36.2315H41.7648C41.4581 36.2315 41.2181 36.1349 41.0448 35.9415C40.8781 35.7482 40.7948 35.5182 40.7948 35.2515C40.7948 34.9849 40.8781 34.7549 41.0448 34.5615C41.2181 34.3682 41.4581 34.2715 41.7648 34.2715H45.0448C45.3514 34.2715 45.5914 34.3682 45.7648 34.5615C45.9381 34.7549 46.0248 34.9849 46.0248 35.2515C46.0248 35.5182 45.9381 35.7482 45.7648 35.9415C45.5914 36.1349 45.3514 36.2315 45.0448 36.2315H44.3848V40.3815ZM48.9809 36.2315V37.1415H50.4309C50.5643 37.1415 50.6643 37.0915 50.7309 36.9915C50.7976 36.8915 50.8309 36.7782 50.8309 36.6515C50.8309 36.5449 50.7976 36.4482 50.7309 36.3615C50.6709 36.2749 50.5709 36.2315 50.4309 36.2315H48.9809ZM48.9809 38.5615V39.3615H50.4309C50.5709 39.3615 50.6709 39.3182 50.7309 39.2315C50.7976 39.1449 50.8309 39.0549 50.8309 38.9615C50.8309 38.8615 50.7976 38.7715 50.7309 38.6915C50.6709 38.6049 50.5709 38.5615 50.4309 38.5615H48.9809ZM47.1209 35.2515C47.1209 34.5982 47.4143 34.2715 48.0009 34.2715H51.0709C51.3176 34.2715 51.5343 34.3249 51.7209 34.4315C51.9076 34.5315 52.0643 34.6682 52.1909 34.8415C52.3176 35.0082 52.4109 35.2015 52.4709 35.4215C52.5376 35.6415 52.5709 35.8649 52.5709 36.0915C52.5709 36.4915 52.4843 36.8449 52.3109 37.1515C52.1443 37.4515 51.8809 37.6415 51.5209 37.7215C51.7009 37.7415 51.8609 37.8015 52.0009 37.9015C52.1476 38.0015 52.2709 38.1315 52.3709 38.2915C52.4709 38.4515 52.5476 38.6349 52.6009 38.8415C52.6609 39.0482 52.6909 39.2649 52.6909 39.4915C52.6909 39.7382 52.6576 39.9715 52.5909 40.1915C52.5243 40.4115 52.4209 40.6049 52.2809 40.7715C52.1409 40.9382 51.9576 41.0715 51.7309 41.1715C51.5109 41.2649 51.2476 41.3115 50.9409 41.3115H48.0509C47.4309 41.3115 47.1209 40.9815 47.1209 40.3215V35.2515ZM54.9284 41.3115C54.2884 41.3115 53.9684 40.9849 53.9684 40.3315V35.2515C53.9684 34.5982 54.2884 34.2715 54.9284 34.2715H58.2284C58.535 34.2715 58.7717 34.3682 58.9384 34.5615C59.1117 34.7549 59.1984 34.9849 59.1984 35.2515C59.1984 35.5182 59.1117 35.7482 58.9384 35.9415C58.7717 36.1349 58.535 36.2315 58.2284 36.2315H55.8984V36.9015H57.8384C58.1184 36.9015 58.335 36.9915 58.4884 37.1715C58.6484 37.3449 58.7284 37.5515 58.7284 37.7915C58.7284 38.0315 58.6484 38.2415 58.4884 38.4215C58.335 38.5949 58.1184 38.6815 57.8384 38.6815H55.8984V39.3615H58.2284C58.535 39.3615 58.7717 39.4582 58.9384 39.6515C59.1117 39.8382 59.1984 40.0649 59.1984 40.3315C59.1984 40.5982 59.1117 40.8282 58.9384 41.0215C58.7717 41.2149 58.535 41.3115 58.2284 41.3115H54.9284ZM63.834 40.3815C63.834 40.7015 63.7373 40.9449 63.544 41.1115C63.3507 41.2715 63.1207 41.3515 62.854 41.3515C62.594 41.3515 62.3673 41.2715 62.174 41.1115C61.9873 40.9449 61.894 40.7015 61.894 40.3815V36.2315H61.214C60.9073 36.2315 60.6673 36.1349 60.494 35.9415C60.3273 35.7482 60.244 35.5182 60.244 35.2515C60.244 34.9849 60.3273 34.7549 60.494 34.5615C60.6673 34.3682 60.9073 34.2715 61.214 34.2715H64.494C64.8007 34.2715 65.0407 34.3682 65.214 34.5615C65.3873 34.7549 65.474 34.9849 65.474 35.2515C65.474 35.5182 65.3873 35.7482 65.214 35.9415C65.0407 36.1349 64.8007 36.2315 64.494 36.2315H63.834V40.3815Z" fill="#7C3FF9"/>
<path fill-rule="evenodd" clip-rule="evenodd" d="M44.6216 15.1233C44.6216 20.3611 39.5175 25.1619 32.4883 25.1619C30.7847 25.1619 29.1941 24.8799 27.7619 24.378L27.2557 25.2401L26.7215 26.0429L26.6793 26.0234C26.197 26.6854 25.3677 27.2027 24.6366 27.4926C24.2841 27.6325 23.9151 27.7308 23.5538 27.7964C24.0935 27 24.5266 26.1275 24.8055 25.1103C24.8191 25.118 24.8327 25.1256 24.8464 25.1332L25.3082 23.2161C22.2448 21.3357 20.3549 18.3104 20.3549 15.1233C20.3549 9.88556 25.4591 5.08477 32.4883 5.08477C39.5175 5.08477 44.6216 9.88556 44.6216 15.1233ZM25.7704 25.6055C25.8272 25.6321 25.8842 25.6583 25.9415 25.6842L25.7704 25.6055ZM46.4883 15.1233C46.4883 21.7202 40.2203 27.068 32.4883 27.068C31.0821 27.068 29.7244 26.8911 28.444 26.562C27.8524 28.1081 26.3911 28.8981 25.2339 29.3571C23.9587 29.8629 22.5799 29.934 21.6837 29.8489C21.3224 29.8146 21.0271 29.5329 20.9182 29.1624C20.7223 28.7759 20.7733 28.2758 21.0664 27.9577C22.1882 26.7405 22.9338 25.6006 23.2508 24.099C20.3311 21.9099 18.4883 18.7002 18.4883 15.1233C18.4883 8.5265 24.7563 3.17871 32.4883 3.17871C40.2203 3.17871 46.4883 8.5265 46.4883 15.1233ZM38.9623 10.6882C39.4155 11.0971 39.4514 11.796 39.0425 12.2492C37.6149 13.8314 35.8387 15.8781 34.4158 17.5337C33.7052 18.3605 33.0841 19.0881 32.6407 19.6089C32.4191 19.8692 32.2419 20.0779 32.1201 20.2214L31.9806 20.386L31.9446 20.4285L31.9355 20.4392L31.9332 20.4419L31.9327 20.4425L31.9326 20.4427L31.0887 19.7289L30.4266 20.6139L30.4265 20.6138L30.4262 20.6136L30.4249 20.6126L30.4197 20.6087L30.3989 20.5932L30.318 20.5328C30.2475 20.4802 30.1449 20.4036 30.0165 20.3081C29.7597 20.1169 29.4002 19.8499 28.9896 19.5467C28.1669 18.939 27.1446 18.19 26.3324 17.6135C25.8347 17.2602 25.7175 16.5703 26.0708 16.0725C26.4242 15.5747 27.1141 15.4576 27.6119 15.8109C28.4419 16.4 29.4779 17.1592 30.3029 17.7686C30.5253 17.9328 30.7327 18.0864 30.9172 18.2233L30.9575 18.1759C31.4026 17.6531 32.026 16.9228 32.7394 16.0928C34.1646 14.4346 35.955 12.3712 37.4013 10.7684C37.8102 10.3152 38.5091 10.2793 38.9623 10.6882ZM31.0887 19.7289L31.9325 20.4427C31.5549 20.8892 30.8948 20.9642 30.4266 20.6139L31.0887 19.7289Z" fill="#7C3FF9"/>
</svg>
