<svg width="30" height="30" viewBox="0 0 21 30" fill="none" xmlns="http://www.w3.org/2000/svg">
<path d="M5.76756 22.2287C6.69444 23.3873 7.63678 24.8394 8.13111 25.7199C8.73358 26.8631 8.98075 27.6355 9.42874 29.0103C9.69135 29.7673 9.93852 29.999 10.4638 29.999C11.0353 29.999 11.2979 29.6128 11.4988 29.0103C11.9159 27.7127 12.2403 26.724 12.7501 25.7817C13.7542 23.9743 15.0209 22.3677 16.2568 20.8229C16.5966 20.3904 18.7593 17.8414 19.7325 15.8177C19.7325 15.8177 20.922 13.6087 20.922 10.5191C20.922 7.63031 19.748 5.62207 19.748 5.62207L16.3494 6.5335L14.2794 11.9712L13.7696 12.7127L13.6615 12.8517L13.5225 13.0217L13.2907 13.2997L12.9509 13.6396L11.1126 15.138L6.52452 17.7951L5.76756 22.2287Z" fill="#34A853"/>
<path d="M1.02504 15.4471C2.15274 18.0115 4.30001 20.2515 5.76756 22.2288L13.5379 13.0218C13.5379 13.0218 12.4411 14.4585 10.4638 14.4585C8.25469 14.4585 6.46272 12.6974 6.46272 10.4729C6.46272 8.94353 7.37416 7.89307 7.37416 7.89307L2.1064 9.29883L1.02504 15.4471Z" fill="#FFB400"/>
<path d="M13.6306 0.478027C16.2104 1.31222 18.4195 3.05784 19.748 5.63766L13.5379 13.0372C13.5379 13.0372 14.4493 11.9713 14.4493 10.4574C14.4493 8.18658 12.5338 6.47185 10.4638 6.47185C8.50186 6.47185 7.37416 7.89306 7.37416 7.89306V3.22777L13.6306 0.478027Z" fill="#4285F4"/>
<path d="M2.44624 3.73744C3.99104 1.89913 6.69444 -0.000976562 10.4329 -0.000976562C12.2403 -0.000976562 13.6151 0.477912 13.6151 0.477912L7.37416 7.89295H2.95603L2.44624 3.73744Z" fill="#1A73E8"/>
<path d="M1.02504 15.4471C1.02504 15.4471 0.00546265 13.4234 0.00546265 10.5037C0.00546265 7.73851 1.08683 5.32862 2.4617 3.75293L7.3896 7.90844L1.02504 15.4471Z" fill="#EA4335"/>
</svg>
