<svg width="30" height="30" viewBox="0 0 30 30" fill="none" xmlns="http://www.w3.org/2000/svg">
<mask id="mask0_437_3143" style="mask-type:luminance" maskUnits="userSpaceOnUse" x="0" y="0" width="31" height="30">
<path d="M15.0011 30C6.71629 30 0 23.2837 0 15.0011C0 6.71629 6.71629 0 15.0011 0C23.2858 0 30.0021 6.71629 30.0021 15.0011C30 23.2837 23.2837 30 15.0011 30Z" fill="white"/>
</mask>
<g mask="url(#mask0_437_3143)">
<path d="M30 0H0V30H30V0Z" fill="#005BFF"/>
</g>
<mask id="mask1_437_3143" style="mask-type:luminance" maskUnits="userSpaceOnUse" x="0" y="0" width="31" height="30">
<path d="M15.0011 30C6.71629 30 0 23.2837 0 15.0011C0 6.71629 6.71629 0 15.0011 0C23.2858 0 30.0021 6.71629 30.0021 15.0011C30 23.2837 23.2837 30 15.0011 30Z" fill="white"/>
</mask>
<g mask="url(#mask1_437_3143)">
<path d="M26.825 -5.32568C25.1464 -2.2353 24.0246 -0.632958 20.7691 3.01835C20.2716 3.72745 19.6747 4.318 19.0355 4.87681C16.0594 7.47824 13.0897 10.1029 10.1051 12.6917C9.22247 13.4579 8.29535 14.1564 7.38094 14.8825C6.83695 15.3143 6.185 15.5513 5.54788 15.7694C3.42059 16.4954 1.30601 17.1812 -0.814928 17.9242C-1.76744 18.2586 -2.70514 18.6692 -3.64072 19.0566C-4.29478 19.3275 -4.80279 19.8271 -5.29387 20.3372C-6.4771 21.5712 -7.11423 22.7164 -8.1366 24.687C-8.13871 24.6193 -8.416 18.5401 -8.416 18.5401C-7.13328 16.8912 -5.58174 15.5789 -4.0429 14.3681C-3.36555 13.8347 -2.63529 13.4071 -1.90926 12.9499C-0.626541 12.1434 0.529177 11.1295 1.62351 10.0606C2.66281 9.04883 3.51373 7.86348 4.34771 6.66331C5.66853 4.7604 7.01052 2.86806 8.43717 1.04982C9.15262 0.137521 9.98871 -0.654125 10.8206 -1.44154C11.8874 -2.4512 14.1459 -4.75206 14.1459 -4.75206C14.1544 -4.75206 18.0745 -4.92986 18.0745 -4.92986C17.9581 -4.79439 17.8396 -4.58907 17.7951 -4.51499C17.321 -3.70641 16.8235 -2.92111 16.3833 -2.0956C16.1039 -1.57066 15.9218 -0.969514 15.6721 -0.425522C15.1725 0.653996 14.5714 1.65096 13.6845 2.42144C13.3924 2.67544 13.0495 2.89982 12.7087 3.06915C11.9996 3.42052 11.3773 3.88832 10.7888 4.41961C9.8977 5.22395 9.09758 6.12355 8.3017 7.03162C7.04862 8.45827 5.86326 9.93784 4.72871 11.4703C4.61864 11.6185 4.49376 11.7582 4.39639 11.917C4.34982 11.9932 4.33289 12.0926 4.29902 12.1794L4.32865 12.2345C4.44296 12.1942 4.57419 12.1667 4.67579 12.1032C5.0568 11.8704 5.45474 11.6608 5.81035 11.392C7.15657 10.3739 8.50914 9.34305 9.82361 8.28047C10.501 7.73224 11.0957 7.07818 11.7519 6.49821C12.1562 6.1426 12.6155 5.85473 13.0368 5.52029C13.7289 4.97207 14.4147 4.43442 15.0794 3.8481C16.0912 2.95908 17.1008 2.04043 18.0766 1.10062C20.1087 -0.863678 19.7086 -3.0333 21.6602 -5.09285L26.825 -5.32568Z" fill="#E84646"/>
<path d="M33.319 25.7032C33.0057 26.0249 32.847 26.2768 32.5146 26.5774C32.2458 26.8208 31.9156 27.0113 31.6299 27.2378C30.5779 28.0717 29.6042 29.1047 28.4379 29.7545C27.5573 30.2456 26.6408 30.5906 25.6523 30.7049C25.4766 30.7261 25.284 30.7028 25.1104 30.6605C24.8839 30.6054 24.7972 30.4001 24.8226 30.1588C24.8628 29.7863 25.0512 29.5047 25.2776 29.2359C25.5253 28.9417 25.7751 28.6094 26.0778 28.3892C26.7826 27.8812 27.333 27.2399 27.8135 26.5138C28.1585 25.991 28.4717 25.4619 28.8231 24.9433C29.2465 24.3146 29.801 23.8151 30.3344 23.2965C31.6023 22.0688 32.811 20.7437 34.1509 19.6071C34.1487 19.6409 33.3486 25.4809 33.319 25.7032Z" fill="#E84646"/>
<path d="M27.4684 -5.36585C27.4684 -5.36585 27.3584 -5.08645 27.2589 -4.88959C26.2026 -2.52736 25.2628 -0.338687 23.9145 1.85422C22.7545 3.7402 21.5565 5.58596 20.1764 7.3026C19.6938 7.90375 19.2048 8.51971 18.5846 8.97056C17.6131 9.67754 16.6436 10.3591 15.6636 11.0513C14.275 12.0313 12.8738 13.0029 11.5911 14.1374C11.0852 14.5841 10.6026 15.0582 10.2025 15.6191C9.89558 16.0488 9.59078 16.487 9.23305 16.868C7.77888 18.4259 6.16595 19.7996 4.54033 21.1501C2.8639 22.5407 1.17477 23.9145 -0.51647 25.284C-1.56847 26.137 -2.64164 26.9562 -3.79736 27.6504C-4.02808 27.788 -4.28631 27.8918 -4.53397 27.9912C-4.57207 28.0061 -6.95124 28.9543 -7.14386 29.13C-7.12904 29.329 -6.92372 32.2098 -6.91737 32.2479C-6.88351 32.2289 -6.20405 31.6828 -6.06858 31.5833C-5.09489 30.8467 -4.58477 30.3006 -3.50949 29.7587C-2.28815 29.1427 -1.06258 28.5733 0.135473 27.9129C2.87872 26.391 5.59444 24.7675 8.24032 23.0678C9.46589 22.2804 10.6788 21.4908 11.8705 20.6463C13.2992 19.6387 14.5417 18.4153 15.7546 17.1431C17.2384 15.5853 18.6947 13.9956 20.1404 12.3954C21.1268 11.3032 22.0899 10.1686 23.0509 9.04888C23.6944 8.29957 24.3378 7.55661 24.9538 6.78189C25.9846 5.48012 26.8546 4.0704 27.7542 2.66703C28.3088 1.8013 28.876 0.93345 29.5005 0.12487C31.0943 -1.94103 32.5358 -3.93496 34.5022 -5.87598L27.4684 -5.36585Z" fill="#E84646"/>
<path d="M5.48861 1.58744C4.14873 3.00562 2.84061 4.42593 1.53038 5.87375C0.817047 6.6654 0.173571 7.51843 -0.531291 8.32278C-1.79073 9.76002 -3.09461 11.1803 -4.58266 12.3551C-6.09186 13.5447 -7.71537 14.747 -9.25421 15.8984C-9.25845 15.8117 -9.44048 11.7772 -9.44472 11.6862C-8.79277 10.5813 -8.1366 9.33033 -7.65187 8.13016C-7.36612 7.42106 -7.11423 6.67598 -6.82636 5.96689C-6.27602 4.60162 -5.55422 3.35276 -4.49164 2.35791C-3.89896 1.80122 -3.21738 1.40752 -2.51676 1.03286C-0.414872 -0.0932245 1.6849 -1.23836 3.79101 -2.35386C5.04622 -3.02062 5.99661 -4.18269 7.11635 -5.06112L11.5593 -5.26221C9.54209 -2.96559 7.59049 -0.637217 5.48861 1.58744Z" fill="#E84646"/>
<path d="M14.8233 34.3942C15.1683 34.0576 15.4921 33.7528 15.8096 33.429C17.2934 31.9134 18.9741 30.6688 20.6273 29.3797C20.9829 29.1024 21.3321 28.8061 21.6687 28.5013C21.7872 28.3891 21.8761 28.2536 21.9438 28.1033C21.9883 28.0081 22.0243 27.8536 21.9735 27.788C21.9079 27.7033 21.7491 27.6186 21.6496 27.6419C21.4083 27.6927 21.1501 27.7583 20.9426 27.8917C19.7488 28.66 18.5719 29.4475 17.3908 30.2327C16.9886 30.5016 16.5886 30.8106 16.1885 31.0794C15.4562 31.5663 14.8127 32.1822 14.2708 32.8934C13.9258 33.3485 13.5977 33.683 13.2273 34.1148C13.1828 34.1677 13.0622 34.2841 12.9796 34.3709C12.7044 34.3688 8.60016 34.3222 8.53242 34.3222C9.0108 34.0111 9.55267 33.6216 9.74953 33.4755C11.8895 31.8732 13.6231 30.8995 15.9091 29.5575C17.9369 28.3658 19.9372 27.1233 21.9438 25.8956C22.6424 25.4681 23.3557 25.0384 23.887 24.3674C24.2341 23.9292 24.5961 23.508 24.9326 23.0592C26.0185 21.6114 27.0917 20.1234 28.1818 18.6777C28.876 17.7569 29.5703 16.8467 30.4085 16.0636C31.0139 15.4963 31.6616 14.9819 32.2712 14.421C33.4777 13.3118 33.1624 11.8429 35.3912 8.42438C36.6316 6.52147 37.4529 5.88857 38.1239 5.16254C38.5536 4.69687 39.8067 3.98566 40.3105 3.60889C40.3062 3.91581 40.2956 4.96993 40.2935 5.18583C39.3728 5.97536 37.8805 8.16826 37.7111 9.40018C37.1036 13.7966 33.0967 16.4551 31.0541 19.0841C30.0974 20.3202 29.0073 21.3934 27.8431 22.4052C27.079 23.0698 26.3402 23.7599 25.7306 24.5896C25.4851 24.9241 25.32 25.3199 25.0956 25.6734C24.359 26.8249 23.6097 27.9763 22.8604 29.1194C22.3016 29.966 21.7449 30.8297 21.1247 31.6255C20.3859 32.5738 19.8208 33.2194 19.0355 34.1275C18.9974 34.1719 18.8619 34.3391 18.7603 34.4407L14.8233 34.3942Z" fill="#E84646"/>
<path d="M-8.21492 36.0495C-5.94582 34.4429 -3.33804 33.0967 -0.948287 31.6658C0.150281 31.0075 1.27848 30.3957 2.40668 29.7946C3.64707 29.1342 4.88957 28.4526 6.16806 27.8875C8.25089 26.9667 10.1284 25.7369 11.8768 24.2488C12.4568 23.7557 12.9754 23.1736 13.5003 22.6105C14.6031 21.4273 15.7186 20.2271 16.796 19.0185C17.8586 17.8268 18.8788 16.6054 19.9287 15.401C20.4727 14.7766 21.0654 14.1945 21.7406 13.731C21.8888 13.6336 22.0602 13.5786 22.2254 13.5214C22.3968 13.46 22.5132 13.5341 22.473 13.7183C22.4053 14.0294 22.3121 14.3681 22.1661 14.6433C21.6687 15.5619 21.1607 16.4509 20.6167 17.3421C19.9393 18.4533 19.1794 19.5307 18.3433 20.5129C17.5898 21.3998 16.7685 22.1787 15.8393 22.8561C15.2043 23.3133 14.5925 23.8361 14.0231 24.3822C13.1341 25.2458 12.1139 25.9126 11.1084 26.6174C8.97269 28.1161 6.75015 29.494 4.54455 30.8741C2.2437 32.3135 0.450852 33.8206 -1.86905 35.9309L-8.21492 36.0495Z" fill="#E84646"/>
<path d="M34.5022 3.85664C36.0517 3.14966 38.5578 1.00756 39.6522 -0.0825391L39.2161 -6.58081C38.7399 -6.18922 37.9842 -5.64946 37.5503 -5.27692C37.0931 -4.88957 36.511 -4.35827 36.0919 -3.92858C34.3752 -2.16537 33.846 -1.32504 32.2479 0.554588C30.7895 2.26912 29.2232 4.02386 28.2156 6.08553C27.8748 6.78616 27.5848 7.49313 27.2419 8.19164C26.3233 10.0734 25.2713 11.8959 24.2426 13.712C23.4827 15.0519 22.6783 16.3388 21.7258 17.5326C20.8876 18.5825 20.0515 19.6345 19.19 20.6632C18.61 21.3575 18.0279 22.0433 17.395 22.6805C16.4997 23.5843 15.471 24.3103 14.4253 25.0067C13.3416 25.7327 12.2472 26.4334 11.1423 27.1234C9.80032 27.9616 8.66365 29.0856 7.54392 30.2117C7.07613 30.6837 6.61469 31.1706 6.11515 31.6002C4.87476 32.6671 3.75291 33.319 2.64376 34.5361C2.54216 34.6462 2.29027 34.9086 2.23735 34.9658L7.59472 34.606C7.81274 34.4578 8.15988 34.0154 8.32922 33.8101C8.76737 33.1454 9.05101 32.8491 9.44048 32.1548C9.87229 31.3843 10.4565 30.7684 11.1952 30.3408C11.7773 30.0042 12.3382 29.6656 12.9225 29.3333C13.7226 28.8782 14.5735 28.4845 15.3313 27.9637C16.868 26.9075 18.3814 25.8005 19.8674 24.6702C21.2601 23.6076 22.6042 22.4794 23.9674 21.3766C24.45 20.9871 24.8607 20.5574 25.1803 20.0007C25.9444 18.6672 26.5455 17.2405 27.0726 15.7906C27.4938 14.6328 27.8706 13.4538 28.2791 12.2875C29.0327 10.139 30.0677 8.13661 31.2425 6.22311C32.1569 4.74354 32.9549 4.56362 34.5022 3.85664Z" fill="#E84646"/>
</g>
<mask id="mask2_437_3143" style="mask-type:luminance" maskUnits="userSpaceOnUse" x="0" y="0" width="31" height="30">
<path d="M15.0011 30C6.71629 30 0 23.2837 0 15.0011C0 6.71629 6.71629 0 15.0011 0C23.2858 0 30.0021 6.71629 30.0021 15.0011C30 23.2837 23.2837 30 15.0011 30Z" fill="white"/>
</mask>
<g mask="url(#mask2_437_3143)">
<mask id="mask3_437_3143" style="mask-type:luminance" maskUnits="userSpaceOnUse" x="0" y="0" width="30" height="30">
<path d="M30 0H0V30H30V0Z" fill="white"/>
</mask>
<g mask="url(#mask3_437_3143)">
<path d="M3.18986 20.0557C2.06166 20.5214 0.802222 19.7699 0.626536 18.5253C0.508001 17.6786 0.973675 16.8425 1.74415 16.525C2.87236 16.0594 4.13179 16.8108 4.30748 18.0554C4.4239 18.9021 3.95822 19.7382 3.18986 20.0557ZM1.88809 14.7597C-0.292112 15.1132 -1.57272 17.4077 -0.776837 19.5371C-0.188394 21.1119 1.433 22.0814 3.04593 21.8189C5.22613 21.4675 6.50673 19.1709 5.71085 17.0415C5.12241 15.4667 3.50102 14.4994 1.88809 14.7597Z" fill="white"/>
<path d="M6.76073 13.5193C6.26965 13.6505 6.00507 14.2072 6.24637 14.6962C6.42206 15.0539 6.84116 15.219 7.22217 15.1174L9.42989 14.5268L7.22852 20.0493C7.15655 20.2313 7.31954 20.4197 7.50792 20.3689L12.8949 18.9253C13.2759 18.8237 13.5553 18.4702 13.5278 18.0723C13.4918 17.5283 12.9838 17.179 12.4949 17.3103L9.80666 18.03L12.0059 12.5117C12.0779 12.3297 11.9128 12.1392 11.7244 12.19L6.76073 13.5193Z" fill="white"/>
<path d="M28.2749 7.72173C27.9277 7.89954 27.7669 8.31441 27.8685 8.69541L28.586 11.3688L23.3557 9.0743C23.1736 8.99387 22.981 9.16109 23.0339 9.35583L24.5135 14.8762C24.6151 15.2572 24.9622 15.5366 25.3517 15.5154C25.8957 15.4858 26.245 14.9714 26.1095 14.4719L25.3877 11.7752L30.6181 14.0697C30.8001 14.1502 30.9927 13.9829 30.9398 13.7882L29.456 8.24667C29.3205 7.74502 28.7617 7.47408 28.2749 7.72173Z" fill="white"/>
<path d="M17.0458 10.5857C14.4253 11.2863 12.7171 13.403 13.2294 15.3123C13.7416 17.2215 16.2795 18.1994 18.8979 17.4967C21.5163 16.794 23.2265 14.6794 22.7143 12.7701C22.2021 10.8608 19.6641 9.88292 17.0458 10.5857ZM17.4776 12.1986C19.2874 11.7139 20.9003 12.3235 21.1331 13.1934C21.366 14.0634 20.2759 15.399 18.4661 15.8838C16.6563 16.3685 15.0434 15.7589 14.8105 14.8889C14.5756 14.0168 15.6678 12.6833 17.4776 12.1986Z" fill="white"/>
</g>
</g>
</svg>
