<svg width="36" height="36" viewBox="0 0 36 36" fill="none" xmlns="http://www.w3.org/2000/svg">
<rect width="36" height="36" rx="18" fill="#FDEDED"/>
<path fill-rule="evenodd" clip-rule="evenodd" d="M18 10C13.5817 10 10 13.5817 10 18C10 22.4183 13.5817 26 18 26C22.4183 26 26 22.4183 26 18C26 13.5817 22.4183 10 18 10ZM8 18C8 12.4772 12.4772 8 18 8C23.5228 8 28 12.4772 28 18C28 23.5228 23.5228 28 18 28C12.4772 28 8 23.5228 8 18ZM18 13C18.5523 13 19 13.4477 19 14V18C19 18.5523 18.5523 19 18 19C17.4477 19 17 18.5523 17 18V14C17 13.4477 17.4477 13 18 13Z" fill="#E84646"/>
<path d="M19 22C19 22.5523 18.5523 23 18 23C17.4477 23 17 22.5523 17 22C17 21.4477 17.4477 21 18 21C18.5523 21 19 21.4477 19 22Z" fill="#E84646"/>
</svg>
