<svg width="30" height="30" viewBox="0 0 30 30" fill="none" xmlns="http://www.w3.org/2000/svg">
<g clip-path="url(#clip0_437_3119)">
<mask id="mask0_437_3119" style="mask-type:luminance" maskUnits="userSpaceOnUse" x="0" y="0" width="30" height="30">
<path d="M0 0H30V30H0V0Z" fill="white"/>
</mask>
<g mask="url(#mask0_437_3119)">
<path d="M14.3843 30H15.6336C22.415 30 25.8057 30 27.9121 27.8943C30.0179 25.7879 30 22.3979 30 15.6336V14.3664C30 7.60357 30 4.21214 27.9121 2.10571C25.8243 0 22.4143 0 15.6336 0H14.3843C7.60214 0 4.21214 0 2.10571 2.10571C0 4.21214 0 7.60072 0 14.3664V15.6336C0 22.3979 0 25.7879 2.10571 27.8943C4.21214 30 7.60214 30 14.3843 30Z" fill="#0077FF"/>
<path d="M16.0986 21.6301C9.33429 21.6301 5.22858 16.9372 5.06929 9.13794H8.495C8.60215 14.8665 11.2086 17.2979 13.2064 17.7937V9.13794H16.4907V14.0808C18.4179 13.8665 20.4336 11.6179 21.1129 9.13794H24.3421C23.825 12.1894 21.63 14.4379 20.0779 15.3665C21.63 16.1165 24.1286 18.0794 25.0921 21.6301H21.5414C20.7914 19.2565 18.9529 17.4179 16.4907 17.1679V21.6301H16.0986Z" fill="white"/>
</g>
</g>
<defs>
<clipPath id="clip0_437_3119">
<rect width="30" height="30" fill="white"/>
</clipPath>
</defs>
</svg>
