<svg width="30" height="30" viewBox="0 0 30 30" fill="none" xmlns="http://www.w3.org/2000/svg">
<g clip-path="url(#clip0_437_3056)">
<path d="M0 14.0838C0 9.154 0 6.68913 0.959406 4.80619C1.80332 3.14991 3.14991 1.80332 4.80619 0.959406C6.68913 0 9.154 0 14.0838 0H15.9162C20.846 0 23.3109 0 25.1938 0.959406C26.8501 1.80332 28.1967 3.14991 29.0406 4.80619C30 6.68913 30 9.154 30 14.0838V15.9162C30 20.846 30 23.3109 29.0406 25.1938C28.1967 26.8501 26.8501 28.1967 25.1938 29.0406C23.3109 30 20.846 30 15.9162 30H14.0838C9.154 30 6.68913 30 4.80619 29.0406C3.14991 28.1967 1.80332 26.8501 0.959406 25.1938C0 23.3109 0 20.846 0 15.9162V14.0838Z" fill="url(#paint0_linear_437_3056)"/>
<path d="M22.6982 10.5859C21.6237 10.5859 20.6534 10.9108 19.825 11.4669V6.39111H17.5331V15.7521C17.5331 18.6001 19.8502 20.8919 22.6856 20.8919C25.521 20.8919 27.8644 18.6137 27.8644 15.7257C27.8644 12.8377 25.5724 10.5859 22.6982 10.5859ZM12.2971 16.4134L10.1997 10.9497H8.59437L6.48437 16.4134L4.37444 10.9497H1.8743L5.56444 20.5567H7.16981L9.38387 14.8344L11.6106 20.5567H13.2159L16.8935 10.9497H14.4071L12.2971 16.4134ZM22.6867 18.6012C21.1329 18.6012 19.825 17.3586 19.825 15.7395C19.825 14.1204 21.0551 12.8915 22.6993 12.8915C24.3436 12.8915 25.5736 14.173 25.5736 15.7395C25.5736 17.3059 24.2657 18.6012 22.6867 18.6012Z" fill="white"/>
</g>
<defs>
<linearGradient id="paint0_linear_437_3056" x1="10.0909" y1="32.5909" x2="28.5" y2="1.90909" gradientUnits="userSpaceOnUse">
<stop stop-color="#6F01FB"/>
<stop offset="1" stop-color="#FF49D7"/>
</linearGradient>
<clipPath id="clip0_437_3056">
<rect width="30" height="30" fill="white"/>
</clipPath>
</defs>
</svg>
