<svg width="31" height="32" viewBox="0 0 31 32" fill="none" xmlns="http://www.w3.org/2000/svg">
<g clip-path="url(#clip0_437_3075)">
<path d="M15.5 31.4683C24.043 31.4683 30.9684 24.5429 30.9684 15.9999C30.9684 7.45694 24.043 0.531494 15.5 0.531494C6.95702 0.531494 0.0315704 7.45694 0.0315704 15.9999C0.0315704 24.5429 6.95702 31.4683 15.5 31.4683Z" fill="#FC3F1D"/>
<path d="M21.0972 25.7104H17.7016V8.91588H16.1889C13.4161 8.91588 11.9637 10.3023 11.9637 12.3718C11.9637 14.7198 12.9655 15.8076 15.0379 17.194L16.7457 18.345L11.8374 25.7075H8.18629L12.6038 19.1344C10.0635 17.3203 8.63407 15.5493 8.63407 12.5613C8.63407 8.8269 11.2375 6.28662 16.1659 6.28662H21.0743V25.7047H21.0972V25.7104Z" fill="white"/>
</g>
<defs>
<clipPath id="clip0_437_3075">
<rect width="31" height="31" fill="white" transform="translate(0 0.5)"/>
</clipPath>
</defs>
</svg>
